<svg width="33" height="33" viewBox="0 0 33 33" fill="none" xmlns="http://www.w3.org/2000/svg">
<path d="M31.2126 0.871582H1.75349C1.04503 0.871582 0.472656 1.44395 0.472656 2.15241V31.6115C0.472656 32.32 1.04503 32.8924 1.75349 32.8924H31.2126C31.9211 32.8924 32.4934 32.32 32.4934 31.6115V2.15241C32.4934 1.44395 31.9211 0.871582 31.2126 0.871582ZM27.5142 10.2176H24.9565C22.9512 10.2176 22.563 11.1703 22.563 12.5712V15.6572H27.3501L26.7257 20.4883H22.563V32.8924H17.5718V20.4923H13.397V15.6572H17.5718V12.0949C17.5718 7.96018 20.0974 5.70672 23.7878 5.70672C25.5569 5.70672 27.0739 5.83881 27.5182 5.89884V10.2176H27.5142Z" fill="#EF2779"/>
</svg>
