<svg width="33" height="33" viewBox="0 0 33 33" fill="none" xmlns="http://www.w3.org/2000/svg">
<path d="M31.197 0.871582H1.73786C1.0294 0.871582 0.457031 1.44395 0.457031 2.15241V31.6115C0.457031 32.32 1.0294 32.8924 1.73786 32.8924H31.197C31.9054 32.8924 32.4778 32.32 32.4778 31.6115V2.15241C32.4778 1.44395 31.9054 0.871582 31.197 0.871582ZM9.95519 28.1573H5.20411V12.8754H9.95519V28.1573ZM7.58165 10.786C7.03701 10.786 6.50459 10.6245 6.05173 10.3219C5.59887 10.0193 5.24591 9.58924 5.03749 9.08606C4.82906 8.58287 4.77453 8.02917 4.88078 7.49499C4.98704 6.96081 5.24931 6.47013 5.63443 6.08501C6.01956 5.69988 6.51023 5.43761 7.04442 5.33135C7.5786 5.2251 8.13229 5.27963 8.63548 5.48806C9.13867 5.69649 9.56875 6.04945 9.87134 6.50231C10.1739 6.95516 10.3354 7.48758 10.3354 8.03223C10.3314 9.55322 9.09864 10.786 7.58165 10.786ZM27.7427 28.1573H22.9957V20.7245C22.9957 18.9513 22.9636 16.6738 20.5261 16.6738C18.0565 16.6738 17.6762 18.6031 17.6762 20.5964V28.1573H12.9331V12.8754H17.4881V14.9647H17.5521C18.1845 13.7639 19.7335 12.4951 22.047 12.4951C26.8582 12.4951 27.7427 15.6612 27.7427 19.7758V28.1573Z" fill="#EF2779"/>
</svg>
