<svg width="35" height="28" viewBox="0 0 35 28" fill="none" xmlns="http://www.w3.org/2000/svg">
<path d="M34.1455 3.56713C32.9207 4.09547 31.5878 4.47572 30.2149 4.62382C31.6403 3.77701 32.7077 2.4392 33.2168 0.861374C31.8793 1.65705 30.414 2.21499 28.886 2.51044C28.2474 1.82771 27.475 1.28381 26.617 0.912637C25.7589 0.541466 24.8337 0.350979 23.8988 0.353044C20.1163 0.353044 17.0744 3.41903 17.0744 7.18147C17.0744 7.70982 17.1384 8.23816 17.2425 8.74649C11.5788 8.4503 6.52753 5.74454 3.16936 1.60185C2.55746 2.64699 2.2368 3.83701 2.24075 5.04809C2.24075 7.41763 3.44553 9.50698 5.28273 10.7358C4.20004 10.6931 3.14271 10.3956 2.19672 9.86722V9.95127C2.19672 13.2694 4.54225 16.0192 7.66827 16.6516C7.08133 16.8041 6.47753 16.8821 5.87111 16.8838C5.42682 16.8838 5.00655 16.8397 4.58227 16.7797C5.44683 19.4855 7.96447 21.4507 10.9624 21.5148C8.61689 23.352 5.67898 24.4327 2.48891 24.4327C1.91654 24.4327 1.3882 24.4127 0.839844 24.3486C3.86581 26.2899 7.45614 27.4106 11.3226 27.4106C23.8748 27.4106 30.7432 17.0119 30.7432 7.986C30.7432 7.68981 30.7432 7.39361 30.7232 7.09742C32.0521 6.12479 33.2168 4.92001 34.1455 3.56713Z" fill="#EF2779"/>
</svg>
